PathFileType	4	(X/Y/Z)	Kaydara	
DataRate	CameraRate	NumFrames	NumMarkers	Units	OrigDataRate	OrigDataStartFrame	OrigNumFrames	
120.00	120.00	4	72	mm	120.00	33	261	
Frame#	Time	Hips			RightUpLeg			RightLeg			RightFoot			RightFoot_End			LeftUpLeg			LeftLeg			LeftFoot			LeftFoot_End			Spine			Spine1			Spine2			Spine3			Neck			Head			Head_End			RightShoulder			RightArm			RightForeArm			RightHand			RightHandThumb1			RightHandThumb2			RightHandThumb3			RightHandThumb3_End			RightInHandIndex			RightHandIndex1			RightHandIndex2			RightHandIndex3			RightHandIndex3_End			RightInHandMiddle			RightHandMiddle1			RightHandMiddle2			RightHandMiddle3			RightHandMiddle3_End			RightInHandRing			RightHandRing1			RightHandRing2			RightHandRing3			RightHandRing3_End			RightInHandPinky			RightHandPinky1			RightHandPinky2			RightHandPinky3			RightHandPinky3_End			LeftShoulder			LeftArm			LeftForeArm			LeftHand			LeftHandThumb1			LeftHandThumb2			LeftHandThumb3			LeftHandThumb3_End			LeftInHandIndex			LeftHandIndex1			LeftHandIndex2			LeftHandIndex3			LeftHandIndex3_End			LeftInHandMiddle			LeftHandMiddle1			LeftHandMiddle2			LeftHandMiddle3			LeftHandMiddle3_End			LeftInHandRing			LeftHandRing1			LeftHandRing2			LeftHandRing3			LeftHandRing3_End			LeftInHandPinky			LeftHandPinky1			LeftHandPinky2			LeftHandPinky3			LeftHandPinky3_End			
		X1	Y1	Z1	X2	Y2	Z2	X3	Y3	Z3	X4	Y4	Z4	X5	Y5	Z5	X6	Y6	Z6	X7	Y7	Z7	X8	Y8	Z8	X9	Y9	Z9	X10	Y10	Z10	X11	Y11	Z11	X12	Y12	Z12	X13	Y13	Z13	X14	Y14	Z14	X15	Y15	Z15	X16	Y16	Z16	X17	Y17	Z17	X18	Y18	Z18	X19	Y19	Z19	X20	Y20	Z20	X21	Y21	Z21	X22	Y22	Z22	X23	Y23	Z23	X24	Y24	Z24	X25	Y25	Z25	X26	Y26	Z26	X27	Y27	Z27	X28	Y28	Z28	X29	Y29	Z29	X30	Y30	Z30	X31	Y31	Z31	X32	Y32	Z32	X33	Y33	Z33	X34	Y34	Z34	X35	Y35	Z35	X36	Y36	Z36	X37	Y37	Z37	X38	Y38	Z38	X39	Y39	Z39	X40	Y40	Z40	X41	Y41	Z41	X42	Y42	Z42	X43	Y43	Z43	X44	Y44	Z44	X45	Y45	Z45	X46	Y46	Z46	X47	Y47	Z47	X48	Y48	Z48	X49	Y49	Z49	X50	Y50	Z50	X51	Y51	Z51	X52	Y52	Z52	X53	Y53	Z53	X54	Y54	Z54	X55	Y55	Z55	X56	Y56	Z56	X57	Y57	Z57	X58	Y58	Z58	X59	Y59	Z59	X60	Y60	Z60	X61	Y61	Z61	X62	Y62	Z62	X63	Y63	Z63	X64	Y64	Z64	X65	Y65	Z65	X66	Y66	Z66	X67	Y67	Z67	X68	Y68	Z68	X69	Y69	Z69	X70	Y70	Z70	X71	Y71	Z71	X72	Y72	Z72	

33	0.267	5081.203	893.81699	129.612	5160.242407034471	895.37600827582	82.6385708474801	5062.93622490224	497.2272186931549	-2.8467504604689338	5035.099258321525	108.69889075741058	-35.18677160126454	4922.450791236311	35.419134347318966	101.20232131457539	5015.829977810697	866.8756030212444	190.28010172069673	4914.634904742199	475.1871760627843	298.3141143570704	4810.355991184487	68.81597687903015	430.9568312480525	4662.828681106017	8.75787383861781	327.11633814519524	5018.469157197624	1011.5568988583499	78.59235639858632	4958.121782472851	1070.2558279322034	30.549840174383505	4891.136797307078	1124.69534903233	-21.786709312125794	4821.516033145066	1165.5845144873917	-75.24267289743464	4746.053081289961	1210.96122445948	-129.8060030085725	4672.885713478773	1249.065160852171	-175.27707177166354	4534.31903442474	1327.4497227375741	-184.90246342538734	4790.477941401555	1202.0827081614925	-131.54913843478747	4852.688714281523	1206.1012793316404	-217.69338972471792	4903.615810895951	982.6358283816112	-236.34971277341862	4999.781557142784	821.6992878520184	-276.4994486982094	4992.853997449308	816.2337334831966	-297.64460961381775	4978.76291090705	803.2052721303334	-307.16719249295124	4971.266229198017	792.0994565824195	-311.645610930901	4966.998138041282	781.1020108788741	-313.5371512432229	5001.961670535337	808.3905124933785	-292.6707791850508	5007.648871534767	780.7478591487762	-305.9150539634899	5003.915872582831	761.8036342768125	-310.8348108263426	4995.04543359217	753.9873535955687	-312.2610041590729	4983.28544936742	750.1898571506503	-312.3403423337505	5007.698261973355	803.8376543060723	-286.14946262256836	5016.350499808013	774.4131110983307	-295.54137327874844	5013.005937489272	753.230482745881	-300.00100652976903	5002.653829385822	743.5553632584811	-301.2855415445559	4989.956295411311	739.281082613765	-301.1603418938609	5011.700399143613	801.3046966096794	-281.2363721555542	5023.204765878802	772.6719863457579	-285.482665240666	5021.0199370267665	753.7337403964751	-288.42565263580104	5011.422327804033	744.1488699721177	-289.16334082839586	4999.667217881147	740.0103471831554	-288.80804463086196	5015.404937764979	799.3575561872191	-274.9364712539869	5028.558994892409	771.8134701585096	-275.0595750702512	5027.897956870708	756.0317948537626	-275.9246391405187	5021.423961788577	748.7422632709063	-275.74119158811646	5011.3138738682455	744.9045390135618	-275.0112095501938	4751.499711063304	1188.1735092756128	-91.90827887407669	4707.766100337966	1118.242138137742	-15.914962189466094	4872.693113755534	977.0763058538107	-113.2805685589906	5022.841876048971	860.8861392997296	-206.4320896571848	5024.698356985775	864.345256584203	-230.59824504463677	5048.544516480875	864.6428313538062	-241.70633136871544	5067.660508407004	862.3273737696212	-247.43389297457753	5085.7435104127	858.2389815995376	-250.49082712058905	5032.545735166618	855.1006358897187	-226.675787885199	5062.396944630566	839.1489325640716	-245.57962451796297	5090.215489379358	830.8194593633102	-253.07880233429754	5107.016728588361	830.4549727022152	-254.80534316672825	5120.590203267694	833.4004452322563	-254.25418726433216	5038.667101002785	848.9262636671756	-220.28724871417336	5071.092104406873	830.0269440858557	-235.2715315094218	5102.167344187541	820.1783394073011	-242.54328661578225	5122.782767117647	819.3741600834213	-244.18896837583588	5137.802490975275	822.4198711746463	-243.37329260969247	5042.180893731641	844.9233279571296	-215.33941598518368	5074.146485776624	824.3710594006756	-224.61387309739754	5101.9168035652965	815.0410145550152	-229.9963383717273	5122.165798721077	813.8691794983372	-231.0762254710435	5136.460511894526	816.5452016519472	-230.06879292074902	5045.753416603264	841.1484571311172	-208.71045892302763	5077.119095534245	819.8052839219945	-213.29759939506735	5100.286212502133	811.2603192590942	-216.07599529075236	5115.50562912094	809.8861453508487	-216.12274182012266	5128.427236641809	811.957722743723	-214.80390837258773
34	0.275	5081.203	893.81699	129.612	5160.663199439437	895.604754790984	82.92039735087393	5062.994487762976	497.4504019905595	-2.2308889392193563	5034.968065468307	108.74214166580175	-33.90212791769464	4922.22162876899	35.56146040229917	102.5171636280345	5015.351909321774	866.6141913995986	189.9964434307316	4914.144594849442	474.9044559116203	297.9654550092276	4809.710162439269	68.76864364473114	431.63366864019423	4661.959859345991	8.986686424982045	327.91789893320674	5018.666220084626	1011.6812013234718	78.63063874711834	4958.453555597057	1070.5233384895976	30.590763692308272	4891.613348920785	1125.1308839717994	-21.761179190665757	4822.146889560095	1166.2170594301506	-75.27774907583388	4746.840105282304	1211.8022694074566	-129.89272540576113	4673.789453042643	1250.097236230867	-175.40953570211545	4535.294256968875	1328.5957130174297	-185.18847948633308	4791.3915270286425	1203.1150919036022	-131.5834337275928	4854.5243949725	1208.405527120243	-217.96895882393963	4905.858252910881	984.3503405121991	-239.167915207436	5004.109718666482	823.7080925808394	-281.1329218795385	4997.432173082972	818.3796667389697	-302.63696614644095	4983.418300286717	805.2271946434441	-312.6011886973678	4975.968041208272	794.0217004050031	-317.38171260909814	4971.7323638359285	782.9297639171343	-319.52044099863315	5006.5560831720495	810.5257789279043	-297.6726331788734	5012.537858923438	782.920916161306	-311.47650857856104	5008.904932222558	763.8721639430261	-316.8064429405741	5000.022244390856	755.9270041204003	-318.4600519827355	4988.201893763171	751.9797354495779	-318.7090104616247	5012.257446616415	805.9291649655545	-291.11799634728186	5021.177978732625	776.5178516519488	-301.0376957836243	5017.93688060125	755.2151037513947	-305.9387285005461	5007.567242498152	745.3815881830707	-307.4946636223264	4994.802318760858	740.94201593674	-307.5536163682096	5016.228254095724	803.3655784301646	-286.16695008008327	5027.949017661026	774.7217906013504	-290.8529038684355	5025.848072095751	755.6726199404455	-294.1734638470365	5016.230210006504	745.9316564147466	-295.16914034214926	5004.410152086784	741.6361502566147	-294.98519378011804	5019.8796733736945	801.3722036027174	-279.8081541215533	5033.203165878294	773.7936566065895	-280.2979312864722	5032.598524116123	757.9134796923403	-281.4522660972453	5026.104544455397	750.5054118479947	-281.45067120952103	5015.933923476713	746.5259317988338	-280.868836845966	4752.057886292051	1188.6778436336954	-92.02875102476736	4707.593697572285	1117.5970267482871	-16.449034183247498	4874.1472385794195	977.476477886897	-115.15085506590586	5026.151014043144	862.7506918890464	-209.62420796264234	5028.303334185913	866.5224950173234	-234.00886714043787	5052.420810198563	867.2200543830867	-245.07298531589748	5071.721601451802	865.1664437878146	-250.76766624980644	5089.955116791836	861.2820533731935	-253.79525489085245	5036.169425896276	857.2374537949805	-230.12843842903277	5066.458139949669	841.6799057176497	-249.2917428715643	5094.546796890497	833.6740572634908	-256.8107733270033	5111.466538997907	833.5208667284703	-258.4431503521942	5125.104759048198	836.6480409631739	-257.742212851444	5042.26265710445	851.0062798210921	-223.71707929604767	5075.099181038565	832.4606691225273	-238.94214166261617	5106.463992613769	822.9564917940756	-246.23150671743545	5127.219901564462	822.4030529917196	-247.7616376710733	5142.309261502331	825.6455462295912	-246.78112799504666	5045.745817086267	846.9526237546316	-218.74817191805306	5078.05481778803	826.6717646014376	-228.22500329975267	5106.071585822796	817.6324679285766	-233.6182764505392	5126.452935412796	816.697470429332	-234.584293905533	5140.811628626972	819.5561377475282	-233.4207329199025	5049.267138958436	843.1120641733094	-212.07426222166393	5080.9177382244325	821.9756722061857	-216.82498953789118	5104.271432892856	813.6475961592006	-219.6040608980392	5119.582179228955	812.4384659233148	-219.56389048467383	5132.557464227686	814.6674019046466	-218.1045313722339
35	0.283	5081.203	893.81699	129.612	5161.077456356983	895.8339565384454	83.19946454306312	5063.05894502727	497.6677234072964	-1.5969511510191015	5034.858545498602	108.78146761941093	-32.605945735228076	4922.013443949277	35.70172315520648	103.84506957357463	5014.883776733866	866.3541198315099	189.71494954040713	4913.664773668257	474.624356103856	297.6234662722725	4809.068463439331	68.72734288149474	432.30899181087915	4661.09661456191	9.232046204853186	328.71200309578796	5018.848491586089	1011.7979537363909	78.6708015423956	4958.762411085489	1070.7754735930876	30.63533804304716	4892.059501681319	1125.542481086101	-21.730065686379596	4822.742019175958	1166.8173215928095	-75.3051563526294	4747.5855030522225	1212.602140895229	-129.9694154933562	4674.640640570236	1251.0752970371468	-175.5253887586422	4536.216189563869	1329.6867639719642	-185.45668649439293	4792.264752871603	1204.1119802588178	-131.603819996373	4856.318656006691	1210.6961610011401	-218.1933585877663	4908.1321601522495	986.0959239945579	-241.99044710612188	5008.542255992609	825.7869986705995	-285.767893559194	5002.134474719038	820.6132136279303	-307.62847757127423	4988.21757367808	807.3458004186851	-318.0482695793171	4980.826363373197	796.0452688980457	-323.14138620417395	4976.632656123883	784.8612783420972	-325.53671826215634	5011.272324139109	812.744846414238	-302.67481793519465	5017.571347367229	785.1899707747835	-317.0456141342498	5014.054522093767	766.0420597131572	-322.7984507899562	5005.16885252412	757.9700640202891	-324.6903663140122	4993.295334871032	753.8738413026402	-325.1199693598125	5016.9345998823155	808.0993490632225	-296.089107943901	5026.143452800163	778.7103891564277	-306.5449493188657	5023.022727346204	757.2926597846694	-311.9015490665913	5012.646460121695	747.3028677481589	-313.7421590962877	4999.821888150314	742.698731160712	-313.9973926186758	5020.870766761617	805.5012229518688	-291.1014357710949	5032.822984887443	776.8512069659689	-296.2354833981352	5030.820033247803	757.6948393849186	-299.94624062849624	5021.192100140818	747.7994286874317	-301.2128566858366	5009.314215435231	743.3474340838043	-301.2117329982468	5024.464636780296	803.4565706755528	-284.6856238493857	5037.968633508999	775.8449831639948	-285.55073216746547	5037.430643646056	759.8680973867808	-287.00484164429156	5030.923601254251	752.3421170902095	-287.19473699623035	5020.698464921236	748.2209877255539	-286.7713235767749	4752.577390200501	1189.1413682055152	-92.1447459356602	4707.382841622703	1116.9088256752555	-17.012423800894553	4875.585272002874	977.9037856004992	-117.04735570067584	5029.479126562344	864.6726001642891	-212.8394128863517	5031.939602135275	868.7703557587654	-237.42377031160854	5056.329322585724	869.8664353563073	-248.42327372308773	5075.814614198529	868.0725249482798	-254.0723411663774	5094.1975850538065	864.389382482309	-257.0613771663827	5039.823202180344	859.4434188671222	-233.5899794676988	5070.558335199282	844.2880293711177	-252.99526977516962	5098.917683272382	836.6041763547538	-260.5196572998397	5115.953279061151	836.6576145622741	-262.0475958846179	5129.652021984288	839.9601622874176	-261.18752074609733	5045.885150403493	853.1517571085238	-227.16077354335994	5079.140188362297	834.9656697729165	-242.61225478537798	5110.794752130073	825.8036205705953	-249.90412223698925	5131.687734329655	825.4950410997365	-251.30664712735796	5146.842004858286	828.9272706629777	-250.15123197091836	5049.3352785699635	849.0446395984046	-222.17478211732677	5081.9920271412175	829.0382182774687	-231.84467235285098	5110.254929692617	820.2871230326731	-237.23633355625142	5130.765090673275	819.5830019688135	-238.07725035690063	5145.183201746159	822.6175530174013	-236.74827933301518	5052.801960914521	845.1344697828719	-215.46078194672364	5084.739520306983	824.205447651625	-220.36964770522547	5108.2787827222155	816.0913604254553	-223.1406565316125	5123.677908200687	815.0425095598238	-223.00596124378967	5136.702618562238	817.4225750340767	-221.39819060090278
36	0.292	5081.203	893.81699	129.612	5161.4850403112905	896.0637093827709	83.4759700446859	5063.129435455791	497.8794255059205	-0.9448440554872075	5034.7698871278435	108.81721270095724	-31.29878545986815	4921.825391616687	35.84050260192311	105.18562958729073	5014.425883540143	866.0954288344229	189.4355186250752	4913.195166364363	474.3479257617169	297.2909957252819	4808.430528504931	68.69360188220062	432.98508568820625	4660.240282678725	9.495305468236507	329.49887059048655	5019.015206315318	1011.9065769214518	78.71236454524323	4959.04708661229	1071.010967450058	30.682844280048663	4892.473459010714	1125.928072037352	-21.69425654438631	4823.299068465414	1167.38233268701	-75.32572899117864	4748.2862990722715	1213.356890282475	-130.03685393960316	4675.435154601483	1251.9939695131993	-175.62483518608482	4537.080228558774	1330.7167479528364	-185.70664841154414	4793.094375502748	1205.069443656343	-131.61073447357944	4858.065732078057	1212.9681209651844	-218.3636653599058	4910.437384299796	987.87364270062	-244.8098114589787	5013.078389177127	827.9431418143565	-290.3947096526293	5006.9606689909115	822.9433449417143	-312.6080210778986	4993.1615785094555	809.5721347038757	-323.49748537055086	4985.842757671229	798.1825285996616	-328.91397023572216	4981.701139966349	786.9099166644617	-331.57570541605673	5016.1100151151095	815.0563765839546	-307.66654246146095	5022.749684214993	787.5657121369902	-322.6110485953703	5019.365806855548	768.325610333415	-328.7998632195693	5010.487076941385	760.1298632199911	-330.9414941218691	4998.568231788589	755.8863979250897	-331.56339719782096	5021.729229367247	810.3564711102769	-301.05251547938764	5031.247075609734	781.0007508434198	-312.05260913262885	5028.264506151443	759.4748648172443	-317.87939614800456	5017.893291894332	749.3321438821459	-320.01861447719256	5005.017509686322	744.5651339332346	-320.4829640830546	5025.627342343551	807.7195600623476	-296.0299141724556	5037.826553238637	779.069447815002	-301.6205711326193	5035.93645029433	759.8110184851326	-305.7346166212693	5026.309371799624	749.7639576606351	-307.28579688777603	5014.3814317513925	745.156859873847	-307.4796520691862	5029.159119957561	805.6181611479037	-289.5594534316769	5042.855049884542	777.9758600218295	-290.808905737246	5042.394532694325	761.9050815678233	-292.5737789142901	5035.881877067865	754.2626021742989	-292.96534727699037	5025.608810529077	750.0006898396479	-292.71126397555577	4753.0559500977015	1189.5607938696664	-92.25739974237104	4707.132666857504	1116.1768921245964	-17.608017629918184	4877.004001706557	978.3612787498076	-118.9690684161092	5032.820978569022	866.6554339490015	-216.07293345326877	5035.601968081953	871.092994797723	-240.83563581163347	5060.264233034251	872.5849312142794	-251.74803903310357	5079.933249228159	871.0476852189088	-257.3376889987671	5098.464186428192	867.5622496393592	-260.2782513523501	5043.501788547313	861.7227217930784	-237.05356505059547	5074.691806993911	846.9774878302243	-256.6811553683318	5103.321818277873	839.6130652708397	-264.19510583150924	5120.4701462241965	839.8674164228323	-265.60765355301436	5134.224734501292	843.3378268427742	-264.5786111029894	5049.529199355502	855.3666954232706	-230.6121428688676	5083.209250663778	837.5458367711251	-246.27388816515784	5115.153071905015	828.7225691480971	-253.55182765369028	5136.179138566847	828.6516903157236	-254.81391869161197	5151.393093308492	832.2653102860203	-253.4730302132078	5052.9438357789595	851.2032498502857	-225.61357720611755	5085.952183478955	831.4741146203356	-235.4660494338391	5114.460303932695	823.007734382632	-240.84262500691577	5135.095171037806	822.5272821303491	-241.54651760637577	5149.56766369359	825.729726304474	-240.04241326187605	5056.352362031962	847.2193321241381	-218.8650224724274	5088.578434427221	826.4980004280048	-223.92592276038454	5112.301756159901	818.5942086331327	-226.67944685404865	5127.785891745084	817.6999437317733	-226.4421908697567	5140.855350566206	820.2238093054233	-224.6777760310682
